ffmpeg version git-2013-08-16-ec0e0eb Copyright (c) 2000-2013 the FFmpeg developers
  built on Aug 16 2013 10:11:34 with gcc 4.4.7 (GCC) 20120313 (Red Hat 4.4.7-3)
  configuration: --prefix=/root/ffmpeg_build --extra-cflags=-I/root/ffmpeg_build/include --extra-ldflags=-L/root/ffmpeg_build/lib --bindir=/root/bin --extra-libs=-ldl --enable-gpl --enable-nonfree --enable-libfdk_aac --enable-libmp3lame --enable-libopus --enable-libvorbis --enable-libvpx --enable-libx264 --enable-libfreetype --enable-libspeex --enable-libtheora
  libavutil      52. 42.100 / 52. 42.100
  libavcodec     55. 28.100 / 55. 28.100
  libavformat    55. 13.102 / 55. 13.102
  libavdevice    55.  3.100 / 55.  3.100
  libavfilter     3. 82.100 /  3. 82.100
  libswscale      2.  5.100 /  2.  5.100
  libswresample   0. 17.103 /  0. 17.103
  libpostproc    52.  3.100 / 52.  3.100
[mp3 @ 0x388c260] Header missing
[mp3 @ 0x388cc60] Header missing
[h264 @ 0x388d660] non-existing PPS referenced
[h264 @ 0x388d660] non-existing PPS 0 referenced
[h264 @ 0x388d660] decode_slice_header error
[h264 @ 0x388d660] no frame!
[h264 @ 0x388d660] non-existing PPS referenced
[h264 @ 0x388d660] non-existing PPS 0 referenced
[h264 @ 0x388d660] decode_slice_header error
[h264 @ 0x388d660] no frame!
[h264 @ 0x388d660] non-existing PPS referenced
[h264 @ 0x388d660] non-existing PPS 0 referenced
[h264 @ 0x388d660] decode_slice_header error
[h264 @ 0x388d660] no frame!
[h264 @ 0x388d660] non-existing PPS referenced
[h264 @ 0x388d660] non-existing PPS 0 referenced
[h264 @ 0x388d660] decode_slice_header error
[h264 @ 0x388d660] no frame!
[h264 @ 0x388d660] mmco: unref short failure
    Last message repeated 1 times
[mpegts @ 0x3888240] PES packet size mismatch
    Last message repeated 2 times
Input #0, mpegts, from '/mnt/media/BISS.ts':
  Duration: 03:46:20.77, start: 27901.627256, bitrate: 20992 kb/s
  Program 1 
    Metadata:
      service_name    : DKDR4
      service_provider: DR MCR
    Stream #0:0[0x100](dan): Audio: mp2 ([3][0][0][0] / 0x0003), 48000 Hz, stereo, s16p, 384 kb/s
    Stream #0:1[0x101](dan): Audio: mp2 ([3][0][0][0] / 0x0003), 48000 Hz, stereo, s16p, 384 kb/s
    Stream #0:2[0x134]: Video: h264 (High) ([27][0][0][0] / 0x001B), yuv420p, 1920x1080 [SAR 1:1 DAR 16:9], 25 fps, 25 tbr, 90k tbn, 50 tbc
-async is forwarded to lavfi similarly to -af aresample=async=1:min_hard_comp=0.100000:first_pts=0.
[libx264 @ 0x388eea0] using SAR=1/1
[libx264 @ 0x388eea0] frame MB size (120x68) > level limit (3600)
[libx264 @ 0x388eea0] DPB size (4 frames, 32640 mbs) > level limit (2 frames, 18000 mbs)
[libx264 @ 0x388eea0] MB rate (204000) > level limit (108000)
[libx264 @ 0x388eea0] using cpu capabilities: MMX2 SSE2Fast SSSE3 SSE4.2
[libx264 @ 0x388eea0] profile High, level 3.1
Output #0, mpegts, to 'udp://54.229.139.162:5004':
  Metadata:
    encoder         : Lavf55.13.102
    Stream #0:0: Video: h264 (libx264), yuv420p, 1920x1080 [SAR 1:1 DAR 16:9], q=-1--1, 5000 kb/s, 90k tbn, 25 tbc
    Stream #0:1(dan): Audio: aac (libfdk_aac), 48000 Hz, stereo, s16, 128 kb/s
Stream mapping:
  Stream #0:2 -> #0:0 (h264 -> libx264)
  Stream #0:1 -> #0:1 (mp2 -> libfdk_aac)
Press [q] to stop, [?] for help
[mp2 @ 0x388cc60] Header missing
Error while decoding stream #0:1: Invalid data found when processing input
[h264 @ 0x4b692a0] reference picture missing during reorder
[h264 @ 0x4b692a0] Missing reference picture, default is 0
[h264 @ 0x4b692a0] decode_slice_header error
[h264 @ 0x4bae0e0] reference picture missing during reorder
[h264 @ 0x4bae0e0] Missing reference picture, default is 65546
[h264 @ 0x4c1ca80] reference picture missing during reorder
[h264 @ 0x4c1ca80] Missing reference picture, default is 65542
[h264 @ 0x4d687c0] mmco: unref short failure
frame=   18 fps=0.0 q=0.0 size=       0kB time=00:00:00.72 bitrate=   0.0kbits/s dup=16 drop=0    frame=   32 fps= 22 q=0.0 size=       0kB time=00:00:01.36 bitrate=   0.0kbits/s dup=16 drop=0    frame=   34 fps= 17 q=23.0 size=     422kB time=00:00:01.38 bitrate=2490.3kbits/s dup=16 drop=0    frame=   41 fps= 15 q=32.0 size=     433kB time=00:00:01.64 bitrate=2159.9kbits/s dup=16 drop=0    frame=   51 fps= 13 q=26.0 size=     519kB time=00:00:02.02 bitrate=2098.7kbits/s dup=16 drop=0    frame=   56 fps= 12 q=24.0 size=     659kB time=00:00:02.30 bitrate=2344.8kbits/s dup=16 drop=0    frame=   61 fps= 11 q=28.0 size=     989kB time=00:00:02.45 bitrate=3301.9kbits/s dup=16 drop=0    frame=   66 fps= 11 q=28.0 size=    1054kB time=00:00:02.58 bitrate=3345.5kbits/s dup=16 drop=0    frame=   70 fps= 10 q=27.0 size=    1107kB time=00:00:02.73 bitrate=3321.2kbits/s dup=16 drop=0    frame=   73 fps=9.6 q=26.0 size=    1166kB time=00:00:02.90 bitrate=3292.2kbits/s dup=16 drop=0    frame=   78 fps=9.4 q=26.0 size=    1249kB time=00:00:03.15 bitrate=3240.1kbits/s dup=16 drop=0    frame=   82 fps=9.3 q=25.0 size=    1331kB time=00:00:03.30 bitrate=3296.7kbits/s dup=16 drop=0    frame=   86 fps=9.1 q=27.0 size=    1659kB time=00:00:03.45 bitrate=3933.2kbits/s dup=16 drop=0    frame=   90 fps=8.9 q=27.0 size=    1728kB time=00:00:03.60 bitrate=3926.3kbits/s dup=16 drop=0    frame=   93 fps=8.5 q=27.0 size=    1784kB time=00:00:03.69 bitrate=3959.8kbits/s dup=16 drop=0    frame=   98 fps=8.5 q=26.0 size=    1870kB time=00:00:03.88 bitrate=3944.5kbits/s dup=16 drop=0    frame=  102 fps=8.2 q=26.0 size=    1944kB time=00:00:04.09 bitrate=3888.9kbits/s dup=16 drop=0    frame=  106 fps=8.1 q=23.0 size=    2024kB time=00:00:04.24 bitrate=3905.1kbits/s dup=16 drop=0    frame=  110 fps=7.8 q=25.0 size=    2341kB time=00:00:04.41 bitrate=4343.4kbits/s dup=16 drop=0    frame=  114 fps=7.7 q=26.0 size=    2416kB time=00:00:04.56 bitrate=4335.1kbits/s dup=16 drop=0    frame=  118 fps=7.6 q=26.0 size=    2493kB time=00:00:04.69 bitrate=4351.8kbits/s dup=16 drop=0    frame=  122 fps=7.5 q=26.0 size=    2563kB time=00:00:04.84 bitrate=4335.9kbits/s dup=16 drop=0    frame=  126 fps=7.4 q=26.0 size=    2634kB time=00:00:05.14 bitrate=4196.9kbits/s dup=16 drop=0    frame=  130 fps=7.2 q=26.0 size=    2710kB time=00:00:05.26 bitrate=4213.4kbits/s dup=16 drop=0    frame=  136 fps=7.1 q=27.0 size=    3097kB time=00:00:05.46 bitrate=4646.1kbits/s dup=16 drop=0    frame=  139 fps=6.9 q=26.0 size=    3166kB time=00:00:05.56 bitrate=4657.9kbits/s dup=16 drop=0    frame=  144 fps=6.8 q=26.0 size=    3262kB time=00:00:05.76 bitrate=4639.9kbits/s dup=16 drop=0    frame=  145 fps=6.6 q=26.0 size=    3269kB time=00:00:05.78 bitrate=4631.9kbits/s dup=16 drop=0    frame=  150 fps=6.7 q=26.0 size=    3352kB time=00:00:06.03 bitrate=4548.9kbits/s dup=16 drop=0    frame=  154 fps=6.7 q=26.0 size=    3433kB time=00:00:06.18 bitrate=4546.3kbits/s dup=16 drop=0    frame=  158 fps=6.7 q=26.0 size=    3518kB time=00:00:06.33 bitrate=4548.6kbits/s dup=16 drop=0    frame=  165 fps=6.8 q=27.0 size=    3890kB time=00:00:06.54 bitrate=4866.1kbits/s dup=16 drop=0    frame=  169 fps=6.8 q=26.0 size=    3962kB time=00:00:06.69 bitrate=4845.0kbits/s dup=16 drop=0    frame=  173 fps=6.8 q=26.0 size=    4028kB time=00:00:06.97 bitrate=4730.0kbits/s dup=16 drop=0    frame=  177 fps=6.8 q=26.0 size=    4096kB time=00:00:07.12 bitrate=4708.9kbits/s dup=16 drop=0    frame=  181 fps=6.8 q=23.0 size=    4166kB time=00:00:07.27 bitrate=4691.0kbits/s dup=16 drop=0    frame=  186 fps=6.8 q=27.0 size=    4489kB time=00:00:07.40 bitrate=4967.3kbits/s dup=16 drop=0    frame=  190 fps=6.9 q=26.0 size=    4558kB time=00:00:07.55 bitrate=4944.4kbits/s dup=16 drop=0    frame=  194 fps=6.9 q=26.0 size=    4631kB time=00:00:07.72 bitrate=4912.6kbits/s dup=16 drop=0    frame=  198 fps=6.8 q=26.0 size=    4701kB time=00:00:07.97 bitrate=4827.2kbits/s dup=16 drop=0    frame=  202 fps=6.8 q=26.0 size=    4773kB time=00:00:08.12 bitrate=4810.8kbits/s dup=16 drop=0    frame=  205 fps=6.7 q=26.0 size=    4832kB time=00:00:08.23 bitrate=4806.8kbits/s dup=16 drop=0    frame=  210 fps=6.8 q=26.0 size=    5156kB time=00:00:08.36 bitrate=5051.0kbits/s dup=16 drop=0    frame=  216 fps=6.8 q=26.0 size=    5252kB time=00:00:08.64 bitrate=4979.2kbits/s dup=16 drop=0    frame=  219 fps=6.8 q=26.0 size=    5312kB time=00:00:08.81 bitrate=4938.9kbits/s dup=16 drop=0    frame=  224 fps=6.8 q=26.0 size=    5388kB time=00:00:09.00 bitrate=4902.4kbits/s dup=16 drop=0    frame=  226 fps=6.7 q=26.0 size=    5436kB time=00:00:09.08 bitrate=4900.4kbits/s dup=16 drop=0    frame=  230 fps=6.7 q=26.0 size=    5509kB time=00:00:09.23 bitrate=4886.0kbits/s dup=16 drop=0    frame=  232 fps=6.7 q=26.0 size=    5533kB time=00:00:09.30 bitrate=4872.9kbits/s dup=16 drop=0    frame=  236 fps=6.7 q=26.0 size=    5887kB time=00:00:09.42 bitrate=5114.1kbits/s dup=16 drop=0    frame=  240 fps=6.7 q=26.0 size=    5979kB time=00:00:09.57 bitrate=5113.2kbits/s dup=16 drop=0    frame=  243 fps=6.6 q=26.0 size=    6046kB time=00:00:09.74 bitrate=5079.9kbits/s dup=16 drop=0    frame=  249 fps=6.6 q=26.0 size=    6148kB time=00:00:10.00 bitrate=5033.5kbits/s dup=16 drop=0    frame=  251 fps=6.5 q=26.0 size=    6207kB time=00:00:10.09 bitrate=5039.5kbits/s dup=16 drop=0    frame=  256 fps=6.4 q=23.0 size=    6301kB time=00:00:10.28 bitrate=5020.3kbits/s dup=16 drop=0    frame=  260 fps=6.4 q=26.0 size=    6608kB time=00:00:10.38 bitrate=5210.8kbits/s dup=16 drop=0    frame=  264 fps=6.4 q=26.0 size=    6680kB time=00:00:10.53 bitrate=5192.2kbits/s dup=16 drop=0    frame=  268 fps=6.4 q=26.0 size=    6749kB time=00:00:10.81 bitrate=5111.5kbits/s dup=16 drop=0    frame=  273 fps=6.4 q=26.0 size=    6825kB time=00:00:10.94 bitrate=5108.8kbits/s dup=16 drop=0    frame=  277 fps=6.4 q=26.0 size=    6892kB time=00:00:11.09 bitrate=5089.6kbits/s dup=16 drop=0    frame=  281 fps=6.4 q=23.0 size=    6962kB time=00:00:11.22 bitrate=5082.8kbits/s dup=16 drop=0    frame=  286 fps=6.5 q=26.0 size=    7283kB time=00:00:11.39 bitrate=5237.5kbits/s dup=16 drop=0    frame=  289 fps=6.4 q=26.0 size=    7345kB time=00:00:11.54 bitrate=5213.4kbits/s dup=16 drop=0    frame=  294 fps=6.4 q=26.0 size=    7425kB time=00:00:11.81 bitrate=5146.9kbits/s dup=16 drop=0    frame=  298 fps=6.4 q=26.0 size=    7494kB time=00:00:11.96 bitrate=5129.3kbits/s dup=16 drop=0    frame=  302 fps=6.4 q=26.0 size=    7565kB time=00:00:12.11 bitrate=5114.6kbits/s dup=16 drop=0    frame=  306 fps=6.3 q=23.0 size=    7639kB time=00:00:12.24 bitrate=5110.3kbits/s dup=16 drop=0    frame=  310 fps=6.3 q=26.0 size=    7953kB time=00:00:12.39 bitrate=5256.3kbits/s dup=16 drop=0    frame=  315 fps=6.3 q=26.0 size=    8036kB time=00:00:12.62 bitrate=5212.6kbits/s dup=16 drop=0    frame=  320 fps=6.3 q=26.0 size=    8110kB time=00:00:12.88 bitrate=5156.3kbits/s dup=16 drop=0    frame=  325 fps=6.4 q=26.0 size=    8186kB time=00:00:13.03 bitrate=5144.4kbits/s dup=16 drop=0    frame=  326 fps=6.3 q=26.0 size=    8230kB time=00:00:13.05 bitrate=5163.8kbits/s dup=16 drop=0    frame=  330 fps=6.3 q=26.0 size=    8300kB time=00:00:13.20 bitrate=5149.2kbits/s dup=16 drop=0    frame=  336 fps=6.3 q=26.0 size=    8685kB time=00:00:13.39 bitrate=5310.3kbits/s dup=16 drop=0    frame=  339 fps=6.3 q=26.0 size=    8756kB time=00:00:13.54 bitrate=5294.9kbits/s dup=16 drop=0    frame=  344 fps=6.2 q=26.0 size=    8854kB time=00:00:13.82 bitrate=5246.9kbits/s dup=16 drop=0    frame=  348 fps=6.2 q=26.0 size=    8936kB time=00:00:13.97 bitrate=5238.8kbits/s dup=16 drop=0    frame=  352 fps=6.1 q=26.0 size=    9017kB time=00:00:14.10 bitrate=5238.1kbits/s dup=16 drop=0    frame=  355 fps=6.1 q=26.0 size=    9085kB time=00:00:14.20 bitrate=5238.0kbits/s dup=16 drop=0    frame=  359 fps=6.1 q=26.0 size=    9357kB time=00:00:14.35 bitrate=5339.1kbits/s dup=16 drop=0    frame=  361 fps=6.0 q=27.0 size=    9424kB time=00:00:14.40 bitrate=5361.0kbits/s dup=16 drop=0    frame=  365 fps=6.0 q=26.0 size=    9493kB time=00:00:14.67 bitrate=5298.7kbits/s dup=16 drop=0    frame=  368 fps=6.0 q=26.0 size=    9552kB time=00:00:14.78 bitrate=5292.9kbits/s dup=16 drop=0    frame=  373 fps=6.0 q=26.0 size=    9632kB time=00:00:14.89 bitrate=5299.0kbits/s dup=16 drop=0    frame=  377 fps=6.0 q=26.0 size=    9703kB time=00:00:15.04 bitrate=5284.9kbits/s dup=16 drop=0    frame=  381 fps=6.0 q=23.0 size=    9773kB time=00:00:15.21 bitrate=5263.2kbits/s dup=16 drop=0    frame=  386 fps=6.1 q=26.0 size=   10089kB time=00:00:15.42 bitrate=5358.4kbits/s dup=16 drop=0    frame=  390 fps=6.0 q=26.0 size=   10160kB time=00:00:15.61 bitrate=5329.6kbits/s dup=16 drop=0    frame=  394 fps=6.0 q=26.0 size=   10229kB time=00:00:15.76 bitrate=5315.4kbits/s dup=16 drop=0    frame=  398 fps=6.0 q=26.0 size=   10301kB time=00:00:15.91 bitrate=5302.4kbits/s dup=16 drop=0    frame=  402 fps=6.0 q=26.0 size=   10372kB time=00:00:16.04 bitrate=5296.6kbits/s dup=16 drop=0    frame=  406 fps=6.0 q=23.0 size=   10439kB time=00:00:16.19 bitrate=5281.5kbits/s dup=16 drop=0    frame=  410 fps=6.0 q=26.0 size=   10748kB time=00:00:16.36 bitrate=5380.8kbits/s dup=16 drop=0    frame=  414 fps=6.0 q=26.0 size=   10823kB time=00:00:16.66 bitrate=5321.5kbits/s dup=16 drop=0    frame=  418 fps=5.9 q=26.0 size=   10896kB time=00:00:16.72 bitrate=5336.9kbits/s dup=16 drop=0    frame=  422 fps=5.9 q=26.0 size=   10968kB time=00:00:16.87 bitrate=5324.3kbits/s dup=16 drop=0    frame=  426 fps=5.9 q=26.0 size=   11040kB time=00:00:17.00 bitrate=5319.3kbits/s dup=16 drop=0    frame=  430 fps=5.9 q=26.0 size=   11120kB time=00:00:17.15 bitrate=5311.2kbits/s dup=16 drop=0    frame=  434 fps=5.9 q=26.0 size=   11427kB time=00:00:17.36 bitrate=5390.8kbits/s dup=16 drop=0    frame=  437 fps=5.9 q=26.0 size=   11522kB time=00:00:17.55 bitrate=5376.1kbits/s dup=16 drop=0    frame=  440 fps=5.9 q=26.0 size=   11604kB time=00:00:17.64 bitrate=5388.1kbits/s dup=16 drop=0    frame=  442 fps=5.9 q=26.0 size=   11624kB time=00:00:17.70 bitrate=5377.6kbits/s dup=16 drop=0    frame=  444 fps=5.8 q=26.0 size=   11692kB time=00:00:17.81 bitrate=5377.0kbits/s dup=16 drop=0    frame=  448 fps=5.9 q=26.0 size=   11776kB time=00:00:17.94 bitrate=5376.9kbits/s dup=16 drop=0    frame=  453 fps=5.9 q=26.0 size=   11868kB time=00:00:18.06 bitrate=5380.6kbits/s dup=16 drop=0    frame=  456 fps=5.9 q=23.0 size=   11947kB time=00:00:18.24 bitrate=5365.7kbits/s dup=16 drop=0    frame=  461 fps=5.9 q=27.0 size=   12268kB time=00:00:18.49 bitrate=5433.4kbits/s dup=16 drop=0    frame=  465 fps=5.9 q=27.0 size=   12336kB time=00:00:18.64 bitrate=5420.0kbits/s dup=16 drop=0    frame=  470 fps=5.9 q=26.0 size=   12411kB time=00:00:18.79 bitrate=5409.8kbits/s dup=16 drop=0    frame=  476 fps=5.9 q=26.0 size=   12530kB time=00:00:19.00 bitrate=5400.3kbits/s dup=16 drop=0    frame=  480 fps=5.9 q=26.0 size=   12602kB time=00:00:19.17 bitrate=5383.0kbits/s dup=16 drop=0    frame=  485 fps=5.9 q=26.0 size=   12924kB time=00:00:19.43 bitrate=5447.7kbits/s dup=16 drop=0    frame=  489 fps=5.9 q=26.0 size=   12996kB time=00:00:19.60 bitrate=5430.5kbits/s dup=16 drop=0    frame=  494 fps=5.9 q=26.0 size=   13080kB time=00:00:19.73 bitrate=5429.8kbits/s dup=16 drop=0    frame=  498 fps=5.9 q=26.0 size=   13150kB time=00:00:19.86 bitrate=5423.9kbits/s dup=16 drop=0    frame=  502 fps=5.9 q=26.0 size=   13218kB time=00:00:20.01 bitrate=5411.1kbits/s dup=16 drop=0    frame=  506 fps=5.9 q=23.0 size=   13295kB time=00:00:20.24 bitrate=5379.8kbits/s dup=16 drop=0    frame=  510 fps=5.9 q=26.0 size=   13599kB time=00:00:20.45 bitrate=5445.2kbits/s dup=16 drop=0    frame=  514 fps=5.9 q=26.0 size=   13671kB time=00:00:20.60 bitrate=5434.5kbits/s dup=16 drop=0    frame=  518 fps=6.0 q=26.0 size=   13743kB time=00:00:20.75 bitrate=5423.9kbits/s dup=16 drop=0    frame=  522 fps=5.9 q=26.0 size=   13813kB time=00:00:20.90 bitrate=5412.3kbits/s dup=16 drop=0    frame=  526 fps=5.9 q=26.0 size=   13887kB time=00:00:21.03 bitrate=5408.4kbits/s dup=16 drop=0    frame=  530 fps=5.9 q=26.0 size=   13960kB time=00:00:21.18 bitrate=5398.5kbits/s dup=16 drop=0    frame=  534 fps=5.9 q=26.0 size=   14249kB time=00:00:21.39 bitrate=5455.4kbits/s dup=16 drop=0    frame=  537 fps=5.9 q=26.0 size=   14339kB time=00:00:21.52 bitrate=5457.1kbits/s dup=16 drop=0    frame=  539 fps=5.8 q=26.0 size=   14404kB time=00:00:21.61 bitrate=5460.3kbits/s dup=16 drop=0    frame=  545 fps=5.8 q=26.0 size=   14510kB time=00:00:21.80 bitrate=5452.0kbits/s dup=16 drop=0    frame=  548 fps=5.8 q=26.0 size=   14584kB time=00:00:21.90 bitrate=5452.9kbits/s dup=16 drop=0    frame=  552 fps=5.8 q=26.0 size=   14671kB time=00:00:22.03 bitrate=5453.8kbits/s dup=16 drop=0    frame=  555 fps=5.8 q=26.0 size=   14738kB time=00:00:22.18 bitrate=5441.6kbits/s dup=16 drop=0    frame=  561 fps=5.8 q=27.0 size=   15070kB time=00:00:22.46 bitrate=5495.8kbits/s dup=16 drop=0    frame=  565 fps=5.9 q=27.0 size=   15141kB time=00:00:22.61 bitrate=5485.0kbits/s dup=16 drop=0    frame=  570 fps=5.9 q=27.0 size=   15215kB time=00:00:22.76 bitrate=5475.7kbits/s dup=16 drop=0    frame=  574 fps=5.9 q=26.0 size=   15282kB time=00:00:22.91 bitrate=5463.8kbits/s dup=16 drop=0    frame=  578 fps=5.9 q=26.0 size=   15355kB time=00:00:23.12 bitrate=5439.3kbits/s dup=16 drop=0    frame=  581 fps=5.9 q=24.0 size=   15416kB time=00:00:23.31 bitrate=5416.2kbits/s dup=16 drop=0    frame=  585 fps=5.9 q=26.0 size=   15723kB time=00:00:23.42 bitrate=5498.8kbits/s dup=16 drop=0    frame=  590 fps=5.9 q=27.0 size=   15814kB time=00:00:23.53 bitrate=5505.6kbits/s dup=16 drop=0    frame=  593 fps=5.9 q=27.0 size=   15874kB time=00:00:23.70 bitrate=5486.4kbits/s dup=16 drop=0    frame=  597 fps=5.9 q=26.0 size=   15945kB time=00:00:23.85 bitrate=5476.7kbits/s dup=16 drop=0    frame=  601 fps=5.9 q=26.0 size=   16022kB time=00:00:23.97 bitrate=5473.8kbits/s dup=16 drop=0    frame=  606 fps=5.9 q=24.0 size=   16110kB time=00:00:24.25 bitrate=5441.0kbits/s dup=16 drop=0    frame=  610 fps=5.9 q=26.0 size=   16414kB time=00:00:24.42 bitrate=5504.7kbits/s dup=16 drop=0    frame=  614 fps=5.9 q=27.0 size=   16490kB time=00:00:24.57 bitrate=5496.7kbits/s dup=16 drop=0    frame=  620 fps=5.9 q=27.0 size=   16590kB time=00:00:24.76 bitrate=5487.0kbits/s dup=16 drop=0    frame=  622 fps=5.9 q=26.0 size=   16642kB time=00:00:24.85 bitrate=5485.4kbits/s dup=16 drop=0    frame=  626 fps=5.9 q=26.0 size=   16715kB time=00:00:25.00 bitrate=5476.6kbits/s dup=16 drop=0    frame=  630 fps=5.9 q=26.0 size=   16787kB time=00:00:25.21 bitrate=5453.7kbits/s dup=16 drop=0    frame=  634 fps=5.9 q=26.0 size=   17078kB time=00:00:25.36 bitrate=5515.6kbits/s dup=16 drop=0    frame=  640 fps=5.9 q=27.0 size=   17247kB time=00:00:25.55 bitrate=5528.1kbits/s dup=16 drop=0    frame=  643 fps=5.9 q=27.0 size=   17319kB time=00:00:25.72 bitrate=5514.4kbits/s dup=16 drop=0    frame=  649 fps=5.9 q=27.0 size=   17432kB time=00:00:25.92 bitrate=5509.3kbits/s dup=16 drop=0    frame=  653 fps=5.9 q=27.0 size=   17519kB time=00:00:26.19 bitrate=5478.3kbits/s dup=16 drop=0    frame=  655 fps=5.9 q=27.0 size=   17584kB time=00:00:26.30 bitrate=5476.4kbits/s dup=16 drop=0    frame=  660 fps=5.9 q=26.0 size=   17906kB time=00:00:26.45 bitrate=5545.2kbits/s dup=16 drop=0    frame=  665 fps=5.9 q=27.0 size=   17998kB time=00:00:26.56 bitrate=5551.3kbits/s dup=16 drop=0    frame=  669 fps=5.9 q=27.0 size=   18075kB time=00:00:26.73 bitrate=5539.2kbits/s dup=16 drop=0    frame=  673 fps=5.9 q=27.0 size=   18153kB time=00:00:26.88 bitrate=5532.3kbits/s dup=16 drop=0    frame=  678 fps=5.9 q=27.0 size=   18234kB time=00:00:27.15 bitrate=5500.2kbits/s dup=16 drop=0    frame=  682 fps=5.9 q=26.0 size=   18306kB time=00:00:27.30 bitrate=5491.8kbits/s dup=16 drop=0    frame=  686 fps=5.9 q=27.0 size=   18621kB time=00:00:27.43 bitrate=5560.2kbits/s dup=16 drop=0    frame=  690 fps=5.9 q=27.0 size=   18696kB time=00:00:27.56 bitrate=5556.6kbits/s dup=16 drop=0    frame=  696 fps=5.9 q=27.0 size=   18782kB time=00:00:27.79 bitrate=5535.1kbits/s dup=16 drop=0    frame=  699 fps=5.9 q=27.0 size=   18850kB time=00:00:28.05 bitrate=5504.6kbits/s dup=16 drop=0    frame=  701 fps=5.9 q=27.0 size=   18902kB time=00:00:28.09 bitrate=5511.3kbits/s dup=16 drop=0    frame=  706 fps=5.9 q=24.0 size=   18985kB time=00:00:28.22 bitrate=5510.5kbits/s dup=16 drop=0    frame=  710 fps=5.9 q=26.0 size=   19279kB time=00:00:28.39 bitrate=5562.2kbits/s dup=16 drop=0    frame=  717 fps=5.9 q=27.0 size=   19376kB time=00:00:28.65 bitrate=5540.3kbits/s dup=16 drop=0    frame=  722 fps=5.9 q=27.0 size=   19487kB time=00:00:28.88 bitrate=5526.5kbits/s dup=16 drop=0    frame=  726 fps=5.9 q=27.0 size=   19551kB time=00:00:29.09 bitrate=5504.1kbits/s dup=16 drop=0    frame=  730 fps=5.9 q=27.0 size=   19619kB time=00:00:29.24 bitrate=5495.0kbits/s dup=16 drop=0    frame=  734 fps=5.9 q=26.0 size=   19902kB time=00:00:29.39 bitrate=5545.9kbits/s dup=16 drop=0    frame=  737 fps=5.9 q=27.0 size=   19981kB time=00:00:29.44 bitrate=5559.8kbits/s dup=16 drop=0    frame=  740 fps=5.9 q=27.0 size=   20054kB time=00:00:29.58 bitrate=5552.2kbits/s dup=16 drop=0    frame=  744 fps=5.9 q=27.0 size=   20141kB time=00:00:29.73 bitrate=5548.2kbits/s dup=16 drop=0    frame=  747 fps=5.8 q=27.0 size=   20208kB time=00:00:29.90 bitrate=5534.9kbits/s dup=16 drop=0    frame=  751 fps=5.8 q=27.0 size=   20287kB time=00:00:30.12 bitrate=5517.3kbits/s dup=16 drop=0    frame=  755 fps=5.8 q=27.0 size=   20370kB time=00:00:30.25 bitrate=5516.3kbits/s dup=16 drop=0    frame=  760 fps=5.9 q=27.0 size=   20685kB time=00:00:30.40 bitrate=5574.2kbits/s dup=16 drop=0    frame=  766 fps=5.9 q=27.0 size=   20779kB time=00:00:30.59 bitrate=5564.2kbits/s dup=16 drop=0    frame=  772 fps=5.9 q=27.0 size=   20903kB time=00:00:30.97 bitrate=5528.0kbits/s dup=16 drop=0    frame=  777 fps=5.9 q=27.0 size=   20988kB time=00:00:31.10 bitrate=5527.8kbits/s dup=16 drop=0    frame=  781 fps=5.9 q=24.0 size=   21057kB time=00:00:31.25 bitrate=5519.5kbits/s dup=16 drop=0    frame=  785 fps=5.9 q=27.0 size=   21358kB time=00:00:31.38 bitrate=5575.4kbits/s dup=16 drop=0    frame=  786 fps=5.9 q=27.0 size=   21373kB time=00:00:31.38 bitrate=5579.3kbits/s dup=16 drop=0    frame=  790 fps=5.9 q=27.0 size=   21443kB time=00:00:31.53 bitrate=5571.1kbits/s dup=16 drop=0    frame=  793 fps=5.8 q=27.0 size=   21500kB time=00:00:31.70 bitrate=5556.0kbits/s dup=16 drop=0    frame=  798 fps=5.9 q=27.0 size=   21583kB time=00:00:31.95 bitrate=5532.6kbits/s dup=16 drop=0    frame=  802 fps=5.9 q=27.0 size=   21652kB time=00:00:32.10 bitrate=5524.4kbits/s dup=16 drop=0    frame=  806 fps=5.9 q=24.0 size=   21718kB time=00:00:32.25 bitrate=5515.6kbits/s dup=16 drop=0    frame=  810 fps=5.8 q=26.0 size=   22004kB time=00:00:32.40 bitrate=5562.5kbits/s dup=16 drop=0    frame=  813 fps=5.8 q=27.0 size=   22028kB time=00:00:32.46 bitrate=5557.6kbits/s dup=16 drop=0    frame=  814 fps=5.8 q=27.0 size=   22067kB time=00:00:32.55 bitrate=5553.0kbits/s dup=16 drop=0    frame=  818 fps=5.8 q=27.0 size=   22128kB time=00:00:32.70 bitrate=5542.9kbits/s dup=16 drop=0    frame=  822 fps=5.8 q=27.0 size=   22188kB time=00:00:32.91 bitrate=5521.8kbits/s dup=16 drop=0    frame=  826 fps=5.8 q=27.0 size=   22249kB time=00:00:33.06 bitrate=5512.0kbits/s dup=16 drop=0    frame=  827 fps=5.8 q=26.0 size=   22259kB time=00:00:33.13 bitrate=5503.8kbits/s dup=16 drop=0    frame=  830 fps=5.8 q=26.0 size=   22309kB time=00:00:33.21 bitrate=5502.0kbits/s dup=16 drop=0    frame=  834 fps=5.8 q=26.0 size=   22584kB time=00:00:33.36 bitrate=5544.8kbits/s dup=16 drop=0    frame=  839 fps=5.8 q=27.0 size=   22720kB time=00:00:33.57 bitrate=5543.0kbits/s dup=16 drop=0    frame=  843 fps=5.8 q=27.0 size=   22792kB time=00:00:33.70 bitrate=5539.4kbits/s dup=16 drop=0    frame=  848 fps=5.8 q=26.0 size=   22877kB time=00:00:33.98 bitrate=5514.6kbits/s dup=16 drop=0    frame=  852 fps=5.7 q=26.0 size=   22952kB time=00:00:34.13 bitrate=5508.4kbits/s dup=16 drop=0    frame=  856 fps=5.7 q=24.0 size=   23022kB time=00:00:34.26 bitrate=5504.8kbits/s dup=16 drop=0    frame=  861 fps=5.7 q=27.0 size=   23323kB time=00:00:34.41 bitrate=5552.4kbits/s dup=16 drop=0    frame=  865 fps=5.7 q=27.0 size=   23392kB time=00:00:34.56 bitrate=5544.8kbits/s dup=16 drop=0    frame=  869 fps=5.7 q=26.0 size=   23456kB time=00:00:34.83 bitrate=5515.8kbits/s dup=16 drop=0    frame=  874 fps=5.8 q=26.0 size=   23525kB time=00:00:34.98 bitrate=5508.3kbits/s dup=16 drop=0    frame=  878 fps=5.7 q=26.0 size=   23588kB time=00:00:35.13 bitrate=5499.5kbits/s dup=16 drop=0    frame=  882 fps=5.8 q=26.0 size=   23650kB time=00:00:35.30 bitrate=5487.5kbits/s dup=16 drop=0    frame=  885 fps=5.8 q=26.0 size=   23940kB time=00:00:35.37 bitrate=5544.6kbits/s dup=16 drop=0    frame=  889 fps=5.8 q=26.0 size=   24011kB time=00:00:35.52 bitrate=5537.6kbits/s dup=16 drop=0    frame=  894 fps=5.8 q=26.0 size=   24088kB time=00:00:35.77 bitrate=5515.7kbits/s dup=16 drop=0    frame=  898 fps=5.8 q=26.0 size=   24152kB time=00:00:35.92 bitrate=5507.4kbits/s dup=16 drop=0    frame=  902 fps=5.8 q=26.0 size=   24217kB time=00:00:36.07 bitrate=5499.4kbits/s dup=16 drop=0    frame=  906 fps=5.8 q=23.0 size=   24282kB time=00:00:36.24 bitrate=5488.1kbits/s dup=16 drop=0    frame=  910 fps=5.7 q=26.0 size=   24580kB time=00:00:36.37 bitrate=5535.9kbits/s dup=16 drop=0    frame=  914 fps=5.7 q=26.0 size=   24649kB time=00:00:36.52 bitrate=5528.7kbits/s dup=16 drop=0    frame=  918 fps=5.7 q=26.0 size=   24713kB time=00:00:36.82 bitrate=5498.2kbits/s dup=16 drop=0    frame=  922 fps=5.7 q=26.0 size=   24778kB time=00:00:36.94 bitrate=5493.6kbits/s dup=16 drop=0    frame=  928 fps=5.7 q=26.0 size=   24862kB time=00:00:37.14 bitrate=5483.6kbits/s dup=16 drop=0    frame=  930 fps=5.7 q=26.0 size=   24907kB time=00:00:37.16 bitrate=5490.5kbits/s dup=16 drop=0    frame=  934 fps=5.7 q=26.0 size=   25192kB time=00:00:37.31 bitrate=5531.0kbits/s dup=16 drop=0    frame=  937 fps=5.7 q=26.0 size=   25283kB time=00:00:37.44 bitrate=5532.1kbits/s dup=16 drop=0    frame=  939 fps=5.7 q=26.0 size=   25345kB time=00:00:37.61 bitrate=5520.5kbits/s dup=16 drop=0    frame=  944 fps=5.7 q=26.0 size=   25437kB time=00:00:37.80 bitrate=5512.4kbits/s dup=16 drop=0    frame=  948 fps=5.7 q=26.0 size=   25517kB time=00:00:37.93 bitrate=5510.9kbits/s dup=16 drop=0    frame=  952 fps=5.7 q=26.0 size=   25593kB time=00:00:38.08 bitrate=5505.7kbits/s dup=16 drop=0    frame=  956 fps=5.7 q=23.0 size=   25669kB time=00:00:38.22 bitrate=5500.4kbits/s dup=16 drop=0    frame=  960 fps=5.7 q=26.0 size=   25974kB time=00:00:38.37 bitrate=5544.3kbits/s dup=16 drop=0    frame=  961 fps=5.7 q=26.0 size=   25989kB time=00:00:38.40 bitrate=5544.3kbits/s dup=16 drop=0    frame=  965 fps=5.7 q=26.0 size=   26058kB time=00:00:38.65 bitrate=5522.2kbits/s dup=16 drop=0    frame=  969 fps=5.7 q=26.0 size=   26123kB time=00:00:38.80 bitrate=5514.6kbits/s dup=16 drop=0    frame=  973 fps=5.7 q=26.0 size=   26182kB time=00:00:38.95 bitrate=5506.0kbits/s dup=16 drop=0    frame=  978 fps=5.7 q=26.0 size=   26253kB time=00:00:39.08 bitrate=5502.8kbits/s dup=16 drop=0    frame=  982 fps=5.7 q=26.0 size=   26316kB time=00:00:39.25 bitrate=5492.0kbits/s dup=16 drop=0    frame=  986 fps=5.7 q=26.0 size=   26615kB time=00:00:39.38 bitrate=5536.4kbits/s dup=16 drop=0    frame=  990 fps=5.7 q=26.0 size=   26680kB time=00:00:39.65 bitrate=5511.1kbits/s dup=16 drop=0    frame=  994 fps=5.7 q=26.0 size=   26746kB time=00:00:39.82 bitrate=5501.2kbits/s dup=16 drop=0    frame= 1000 fps=5.7 q=26.0 size=   26827kB time=00:00:40.02 bitrate=5491.2kbits/s dup=16 drop=0    frame= 1006 fps=5.7 q=23.0 size=   26942kB time=00:00:40.17 bitrate=5494.2kbits/s dup=16 drop=0    frame= 1010 fps=5.7 q=26.0 size=   27247kB time=00:00:40.40 bitrate=5524.2kbits/s dup=16 drop=0    frame= 1016 fps=5.7 q=26.0 size=   27336kB time=00:00:40.68 bitrate=5504.5kbits/s dup=16 drop=0    frame= 1018 fps=5.7 q=26.0 size=   27380kB time=00:00:40.76 bitrate=5501.9kbits/s dup=16 drop=0    frame= 1022 fps=5.7 q=26.0 size=   27444kB time=00:00:40.91 bitrate=5494.6kbits/s dup=16 drop=0    frame= 1026 fps=5.7 q=26.0 size=   27505kB time=00:00:41.06 bitrate=5486.7kbits/s dup=16 drop=0    frame= 1030 fps=5.7 q=26.0 size=   27574kB time=00:00:41.19 bitrate=5483.4kbits/s dup=16 drop=0    frame= 1034 fps=5.7 q=26.0 size=   27876kB time=00:00:41.34 bitrate=5523.5kbits/s dup=16 drop=0    frame= 1038 fps=5.7 q=26.0 size=   27967kB time=00:00:41.55 bitrate=5513.0kbits/s dup=16 drop=0    frame= 1041 fps=5.7 q=26.0 size=   28041kB time=00:00:41.68 bitrate=5510.5kbits/s dup=16 drop=0    frame= 1043 fps=5.6 q=26.0 size=   28102kB time=00:00:41.77 bitrate=5511.3kbits/s dup=16 drop=0    frame= 1047 fps=5.6 q=26.0 size=   28178kB time=00:00:41.92 bitrate=5506.5kbits/s dup=16 drop=0    frame= 1051 fps=5.6 q=26.0 size=   28257kB time=00:00:42.06 bitrate=5502.3kbits/s dup=16 drop=0    frame= 1057 fps=5.6 q=26.0 size=   28360kB time=00:00:42.26 bitrate=5497.4kbits/s dup=16 drop=0    frame= 1060 fps=5.6 q=26.0 size=   28665kB time=00:00:42.49 bitrate=5525.9kbits/s dup=16 drop=0    frame= 1062 fps=5.6 q=26.0 size=   28683kB time=00:00:42.58 bitrate=5518.1kbits/s dup=16 drop=0    frame= 1065 fps=5.6 q=26.0 size=   28745kB time=00:00:42.64 bitrate=5521.9kbits/s dup=16 drop=0    frame= 1069 fps=5.6 q=26.0 size=   28808kB time=00:00:42.77 bitrate=5517.2kbits/s dup=16 drop=0    frame= 1073 fps=5.6 q=26.0 size=   28870kB time=00:00:42.90 bitrate=5512.7kbits/s dup=16 drop=0    frame= 1078 fps=5.7 q=26.0 size=   28940kB time=00:00:43.07 bitrate=5504.1kbits/s dup=16 drop=0    frame= 1081 fps=5.7 q=23.0 size=   29004kB time=00:00:43.22 bitrate=5497.3kbits/s dup=16 drop=0    frame= 1086 fps=5.7 q=26.0 size=   29325kB time=00:00:43.47 bitrate=5525.5kbits/s dup=16 drop=0    frame= 1090 fps=5.6 q=26.0 size=   29394kB time=00:00:43.62 bitrate=5519.5kbits/s dup=16 drop=0    frame= 1094 fps=5.7 q=26.0 size=   29462kB time=00:00:43.77 bitrate=5513.3kbits/s dup=16 drop=0    frame= 1098 fps=5.7 q=26.0 size=   29526kB time=00:00:43.92 bitrate=5506.5kbits/s dup=16 drop=0    frame= 1101 fps=5.7 q=26.0 size=   29577kB time=00:00:44.01 bitrate=5505.3kbits/s dup=16 drop=0    frame= 1105 fps=5.6 q=26.0 size=   29647kB time=00:00:44.16 bitrate=5499.7kbits/s dup=16 drop=0    frame= 1110 fps=5.7 q=26.0 size=   29968kB time=00:00:44.43 bitrate=5524.6kbits/s dup=16 drop=0    frame= 1114 fps=5.7 q=26.0 size=   30036kB time=00:00:44.58 bitrate=5518.7kbits/s dup=16 drop=0    frame= 1118 fps=5.7 q=26.0 size=   30101kB time=00:00:44.73 bitrate=5512.0kbits/s dup=16 drop=0    frame= 1122 fps=5.7 q=26.0 size=   30166kB time=00:00:44.88 bitrate=5505.6kbits/s dup=16 drop=0    frame= 1126 fps=5.7 q=26.0 size=   30236kB time=00:00:45.01 bitrate=5502.6kbits/s dup=16 drop=0    frame= 1130 fps=5.7 q=26.0 size=   30301kB time=00:00:45.16 bitrate=5496.2kbits/s dup=16 drop=0    frame= 1134 fps=5.7 q=26.0 size=   30594kB time=00:00:45.46 bitrate=5512.9kbits/s dup=16 drop=0    frame= 1140 fps=5.7 q=26.0 size=   30755kB time=00:00:45.65 bitrate=5518.7kbits/s dup=16 drop=0    frame= 1144 fps=5.7 q=26.0 size=   30838kB time=00:00:45.78 bitrate=5518.0kbits/s dup=16 drop=0    frame= 1147 fps=5.7 q=26.0 size=   30900kB time=00:00:45.88 bitrate=5516.4kbits/s dup=16 drop=0    frame= 1152 fps=5.7 q=26.0 size=   30998kB time=00:00:46.08 bitrate=5510.7kbits/s dup=16 drop=0    frame= 1157 fps=5.7 q=26.0 size=   31089kB time=00:00:46.35 bitrate=5493.8kbits/s dup=16 drop=0    frame= 1164 fps=5.7 q=26.0 size=   31458kB time=00:00:46.61 bitrate=5528.5kbits/s dup=16 drop=0    frame= 1168 fps=5.7 q=26.0 size=   31527kB time=00:00:46.74 bitrate=5525.5kbits/s dup=16 drop=0    frame= 1173 fps=5.7 q=26.0 size=   31603kB time=00:00:46.89 bitrate=5521.2kbits/s dup=16 drop=0    frame= 1181 fps=5.7 q=23.0 size=   31744kB time=00:00:47.29 bitrate=5498.3kbits/s dup=16 drop=0    frame= 1186 fps=5.7 q=26.0 size=   32065kB time=00:00:47.44 bitrate=5536.4kbits/s dup=16 drop=0    frame= 1190 fps=5.7 q=26.0 size=   32135kB time=00:00:47.59 bitrate=5531.1kbits/s dup=16 drop=0    frame= 1198 fps=5.7 q=26.0 size=   32269kB time=00:00:47.87 bitrate=5521.9kbits/s dup=16 drop=0    frame= 1203 fps=5.7 q=26.0 size=   32348kB time=00:00:48.10 bitrate=5508.4kbits/s dup=16 drop=0    frame= 1208 fps=5.7 q=26.0 size=   32425kB time=00:00:48.38 bitrate=5490.0kbits/s dup=16 drop=0    